<?xml version="1.0" encoding="UTF-8" standalone="no"?> <svg xmlns="http://www.w3.org/2000/svg" viewBox="0 0 64 64"><g id="Layer_3" data-name="Layer 3"><path d="M46.14,25.65s-12.58,0-12.64,0V23.47a5.11,5.11,0,0,0-5.11-5.11H26a2.11,2.11,0,0,1,0-4.21H36.79A5.13,5.13,0,0,0,41.9,9a1.5,1.5,0,0,0-3,0,2.12,2.12,0,0,1-2.11,2.11H26c-6.74.21-6.75,10,0,10.21h2.34a2.11,2.11,0,0,1,2.11,2.11v2.17c-.07,0-12.57,0-12.64,0A15.44,15.44,0,0,0,2.5,41.07c-.1,12.62,14.8,20,24.75,12.27h9.5c10,7.75,24.85.35,24.75-12.27A15.44,15.44,0,0,0,46.14,25.65ZM46.07,53.5a12.21,12.21,0,0,1-7.87-2.82,1.62,1.62,0,0,0-1-.34H26.75a1.62,1.62,0,0,0-.95.34,12.21,12.21,0,0,1-7.87,2.82c-16.5-.68-16.48-24.21,0-24.86H46C62.55,29.3,62.57,52.82,46.07,53.5Z"/><path d="M19.6,39.64H17V37a1.5,1.5,0,0,0-3,0v2.64H11.32a1.5,1.5,0,0,0,0,3H14v2.64a1.5,1.5,0,0,0,3,0V42.64H19.6A1.5,1.5,0,0,0,19.6,39.64Z"/><path d="M49.83,39.66a2.08,2.08,0,0,0-.25,2.64,2.72,2.72,0,0,0,.25.32,2.11,2.11,0,0,0,3,0,1.64,1.64,0,0,0,.27-.32,2.27,2.27,0,0,0,.32-.75A2.12,2.12,0,0,0,49.83,39.66Z"/><path d="M41.56,39.39a2.1,2.1,0,0,0-2.65,3.23A2.1,2.1,0,1,0,41.56,39.39Z"/><path d="M45.86,44.49a2.1,2.1,0,0,0-1.16.37,2.51,2.51,0,0,0-.32.25,2.11,2.11,0,0,0,0,3,2.6,2.6,0,0,0,.32.26,1.9,1.9,0,0,0,.76.32C48.42,49.17,48.87,44.57,45.86,44.49Z"/><path d="M45.86,33.57a2.1,2.1,0,1,0,1.75,3.27A2.12,2.12,0,0,0,45.86,33.57Z"/></g></svg>