<?xml version="1.0" encoding="UTF-8" standalone="no"?> <svg id="Layer_1" data-name="Layer 1" xmlns="http://www.w3.org/2000/svg" viewBox="0 0 48 48"><path d="M42.608,37.961l-.361-.175a3.52,3.52,0,0,1-.8-.571L36.243,32h0a4,4,0,0,0,0-5.656,2,2,0,0,0-2.829,0l-.671.671L29.1,23.14l9.448-9.457,1.725,1.3a1,1,0,0,0,1.577-.572l2.121-9.19a1,1,0,0,0-1.2-1.2l-9.19,2.121a1,1,0,0,0-.572,1.577l1.3,1.725-9.324,9.316L12.089,5.025a1.006,1.006,0,0,0-.618-.309l-6.36-.71a1,1,0,0,0-1.1,1.1l.71,6.36a1,1,0,0,0,.309.618l13.738,12.9-4.3,4.3-3.842-.364a2,2,0,0,0-1.611.577l-4.57,4.57a1.5,1.5,0,0,0,.911,2.552l2.052.2a2.967,2.967,0,0,0,3.77,3.771l.2,2.051a1.48,1.48,0,0,0,.982,1.265,1.49,1.49,0,0,0,1.57-.353l4.57-4.57a2.006,2.006,0,0,0,.579-1.6l-.366-3.852,4.43-4.43,3.875,3.64-.671.671a2,2,0,0,0,0,2.828,4,4,0,0,0,5.656,0l5.2,5.193a3.483,3.483,0,0,1,.569.783l.194.4a2.473,2.473,0,0,0,1.835,1.35,2.543,2.543,0,0,0,.4.032,2.508,2.508,0,0,0,1.769-.732l1.3-1.3a2.5,2.5,0,0,0-.66-4.007ZM36.347,10.248a1,1,0,0,0,.091-1.311l-.9-1.189,6.127-1.414-1.414,6.127-1.189-.9a1,1,0,0,0-1.311.09L27.734,21.681l-1.371-1.459ZM10.425,30.915l2.207.21L8.806,34.95l-2.2-.213Zm6.658,6.658-3.82,3.82-.212-2.2,3.823-3.823Zm-6.13.89a1.028,1.028,0,0,1-1.416,0,1,1,0,0,1,0-1.415L20.222,26.363l1.46,1.371ZM6.663,10.884l-.53-4.751,4.75.53L31.329,28.43l-2.9,2.9Zm21.1,23.945,7.072-7.071a2,2,0,0,1,0,2.828l-4.243,4.243A2.048,2.048,0,0,1,27.758,34.829Zm14.1,5.725-1.3,1.3a.5.5,0,0,1-.793-.122l-.2-.416a5.556,5.556,0,0,0-.929-1.283l-5.212-5.2,1.415-1.415,5.215,5.226a5.556,5.556,0,0,0,1.3.93l.379.185a.5.5,0,0,1,.131.8Z"/></svg>