<?xml version="1.0" encoding="utf-8"?>
<!-- Generator: Adobe Illustrator 23.0.3, SVG Export Plug-In . SVG Version: 6.00 Build 0)  -->
<svg version="1.1" id="Layer_1" xmlns="http://www.w3.org/2000/svg" xmlns:xlink="http://www.w3.org/1999/xlink" x="0px" y="0px"
	 viewBox="0 0 491.8 491.8" style="enable-background:new 0 0 491.8 491.8;" xml:space="preserve">
<style type="text/css">
	.st0{fill:#1A1A1A;}
	.st1{fill:#1B1B1B;}
	.st2{fill:#1C1C1C;}
	.st3{fill:#191919;}
	.st4{fill:#FEFEFE;}
	.st5{fill:#FBFBFB;}
	.st6{fill:#FDFDFD;}
	.st7{fill:#FCFCFC;}
	.st8{fill:#F4F4F4;}
	.st9{fill:#F8F8F8;}
	.st10{fill:#F9F9F9;}
	.st11{fill:#FAFAFA;}
	.st12{fill:#242424;}
	.st13{fill:#1E1E1E;}
	.st14{fill:#212121;}
	.st15{fill:#E8E8E8;}
	.st16{fill:#EBEBEB;}
	.st17{fill:#2E2E2E;}
	.st18{fill:#333333;}
	.st19{fill:#222222;}
	.st20{fill:#F6F6F6;}
	.st21{fill:#F7F7F7;}
	.st22{fill:#F5F5F5;}
	.st23{fill:#1D1D1D;}
	.st24{fill:#F0F0F0;}
	.st25{fill:#EDEDED;}
	.st26{fill:#E9E9E9;}
	.st27{fill:#EEEEEE;}
	.st28{fill:#F1F1F1;}
	.st29{fill:#E7E7E7;}
	.st30{fill:#F3F3F3;}
	.st31{fill:#32AADF;}
	.st32{fill:#E9585B;}
	.st33{fill:#2AB574;}
	.st34{fill:#F7AE3F;}
</style>
<g>
	<path class="st0" d="M119.8,413.5c4.9-7,11.2-8.3,17.1-9.9c18.8-5.2,38.1-7.4,57.5-8.2c10.8-0.5,6-8,6.9-12.9
		c1.2-6.8-4.1-5.2-7.7-5.2c-48.3-0.1-96.6-0.1-144.9,0.1c-5.9,0-7.8-1.2-7.8-7.6c0.2-85.8,0.2-171.6,0-257.5c0-5.3,1-7,6.7-7
		c130.2,0.2,260.4,0.1,390.5,0.1c3.8,0,7.5-1.1,7.5,5.6c-0.3,59.6-0.1,119.2-0.2,178.7c0,0.7-0.3,1.4-0.6,2.5
		c-5.9-2.7-11.1-6.2-17.4-7.1c-4.4-0.6-2.4-4.7-2.4-7.1c-0.1-46.2-0.1-92.4-0.1-138.6c0-13.1,0-13.1-13.1-13.1
		c-113.9,0-227.8,0.1-341.7-0.2c-7.4,0-8.8,2.1-8.8,9c0.3,70.9,0.3,141.7,0,212.6c0,6.6,1,8.8,8.3,8.7c75.1-0.3,150.1-0.1,225.2-0.4
		c6.6,0,9.1,1.6,7.8,8.1c-0.3,1.3-0.3,2.7,0,3.9c1.6,7.6-1.3,10.3-9,9.2c-3.8-0.5-9.1-1.7-8.1,5.5c0.7,5.2-3.2,12.3,7.4,12.5
		c11.8,0.2,11.6,0.9,13.6,13.1c0.6,3.9-0.1,5-4.1,5C242.2,413.4,181.9,413.5,119.8,413.5z"/>
	<path class="st0" d="M138.3,229.8c0-9.5,11.1-17.3,18.9-12.8c2.5,1.5,5.9,4.4,7.2,7.9c1.1,2.9,4.6,2.4,4.5,1.6
		c-0.5-5.1,5-4.7,6.8-8c2.4-4.4,10.6-3.4,13.2-1.2c2.8,2.4,7.4,5,7.6,11.3c0.2,7.2-4,10.6-7.9,14.1c-6.5,5.9-13.1,11.7-18.5,18.6
		c-2.1,2.7-3.7,2.9-5.4,0.7c-7.2-9.3-15.8-17.1-24.9-24.4C137,235.6,138.8,232.3,138.3,229.8z"/>
	<path class="st1" d="M342,239.8c0,5.8-0.2,11.5,0.1,17.3c0.2,4.3-0.3,6.6-5.7,6.5c-5.3-0.1-5.1-2.8-5.1-6.4
		c0.1-5.2,0.1-10.5,0-15.7c0-1.5,0.2-3.3-2-3.5c-1.8-0.2-2.7,0.4-3.1,2.4c-0.7,3.4-4.8,5.8-6.5,6.5c-4.3,1.7-5.7-4.5-9-6.7
		c-0.9-0.6-1.3-2.5-3.1-2.2c-2.3,0.4-1.7,2.3-1.7,3.7c-0.1,5.8-0.3,11.5,0.1,17.3c0.3,4.3-1.9,4.6-5.2,4.5c-3-0.1-5.7,0.4-5.6-4.2
		c0.2-12.8,0.1-25.7,0.1-38.5c0-1.9-0.1-4,2.4-4.1c2.6-0.1,6.7-1.2,7.4,0.7c2.1,5.8,8.2,7.9,10.8,13c1.2,2.5,3.8,2.9,4.7,0.8
		c2.5-5.6,9-7.5,11.5-13.2c1.2-2.9,5.3-1.4,8-1.1c3.2,0.3,2,3.2,2,5C342,227.8,342,233.8,342,239.8z"/>
	<path class="st23" d="M347.1,240c0-3.4,0-6.8,0-10.2c0-8.5,4.9-13.2,13.4-13.3c6.3,0,12.6,0.3,18.9-0.1c4.9-0.3,4.7,2.5,4.8,5.9
		c0.2,3.8-1.1,5.1-4.9,4.9c-5-0.3-10-0.3-14.9,0c-2.6,0.1-6.5-2-6.7,3.7c-0.2,5.6,3.6,4,6.3,4.1c5.2,0.1,10.5,0.3,15.7,0
		c4.4-0.3,4.5,2.1,4.5,5.3c0,3.2,0,5.7-4.4,5.5c-5.5-0.3-11-0.2-16.5,0c-2.3,0.1-5.4-1.2-5.6,3.3c-0.2,5.1,3.4,3.6,5.9,3.7
		c5,0.2,10,0.3,14.9,0c4.6-0.3,5.7,1.5,5.8,5.8c0.1,4.6-2,5.1-5.7,5c-5-0.2-10,0-14.9,0c-13.5,0-16.5-3-16.5-16.3
		C347.1,244.7,347.1,242.4,347.1,240z"/>
	<path class="st2" d="M212.1,239.7c-5.5-11.6,7.3-15,11.2-22.6c0.8-1.7,7.4-0.7,11.3-0.5c3.4,0.2,8-2,8.9,4.4
		c0.2,1.5,5.6,1.4,4.4,5.6c-0.6,2,1.5,5.5-2.2,5.5c-2.7,0-5.9,2.1-8.2-2c-2.6-4.7-6.4-3.1-10.7,0.1c-5,3.7-5.1,7.8-4.8,12.8
		c0.3,5.2,7.3,10.7,12.5,9.8c1.2-0.2,2.7,0,3-1.8c0.3-1.7,0-3.3-2.1-3.3c-2.3,0-3.6-0.9-3-3.3c0.5-2.1,2.5-1.3,3.9-1.5
		c1.3-0.1,2.7-0.4,3.9,0c2.6,0.9,7.6-2.6,7.4,2.5c-0.1,4.2,2.1,8.3-2.4,13.3c-6.4,7.2-13.3,3.2-19.8,4.7c-4.5,1-3-3.8-5.3-5.2
		C213.4,254.2,209.4,248.4,212.1,239.7z"/>
	<path class="st1" d="M112.4,239.9c0,4.4,0,8.9,0,13.3c0,2.3-0.6,4.9,3.1,5c2,0.1,2.6,1.5,2.2,3.3c-0.4,2.2-2.2,1.8-3.7,1.8
		c-4.7,0-9.4,0.1-14.1,0c-1.5,0-3.3,0.2-3.3-2.2c0-1.5,0.5-2.9,2-2.8c4.3,0,3.5-3,3.5-5.5c0.1-8.1,0.1-16.2,0-24.3
		c0-2.9,1.2-6.6-3.9-6.7c-1.4,0-1.8-1.8-1.5-3.2c0.3-1.4,1.5-2.1,2.9-2.1c5.2,0,10.5-0.2,15.7,0.1c3,0.2,3.6,3.7,1.9,4.3
		c-8.4,2.8-3.6,9.4-4.7,14.3C112.1,236.7,112.4,238.3,112.4,239.9z"/>
	<path class="st1" d="M279.6,219.9c-2.7-2.4-12.2-5-14.8-2.8c-5.9,5-6.7,13-11.1,19.1c-1.9,2.6-0.3,7.6-0.3,11.5s0.2,7.9-0.1,11.8
		c-0.3,4,2.1,4,4.9,3.9c2.8-0.1,6.2,0.7,5.4-4c-1-5.9,2-7.1,7.1-6.7c4.5,0.4,10-1.4,8.6,6.6c-0.8,4.6,2.7,4.1,5.6,4.1
		c2.6,0,5.2,0.6,5.1-3.7C289.6,245.6,292.3,230.9,279.6,219.9z M271.3,243c-3.9-0.2-8.3,1.6-7.9-5.3c0.3-5.9,5.9-6.7,8.2-10.5
		c2.1,3.9,7.7,4.8,7.9,10.6C279.8,245.6,274.4,242.2,271.3,243z"/>
	<g>
		<path class="st0" d="M369,370.1c-7-0.1-12.5,5.1-12.8,12c-0.3,7.3,5.1,13.2,12.3,13.4c7.1,0.2,12.8-5.5,12.8-12.9
			C381.3,375.7,375.9,370.2,369,370.1z"/>
		<path class="st0" d="M421.3,351.6c-7.2-0.1-13.1,5.7-13,12.8c0.1,6.9,5.6,12.3,12.5,12.4c7.1,0.1,12.6-4.9,12.9-11.9
			C434,357.7,428.5,351.7,421.3,351.6z"/>
		<path class="st0" d="M492.2,388.2c-0.8-4.6-1.9-9.3-3.6-13.6c-9.1-23.4-22.2-44.5-38.5-63.6c-3.9-4.6-8.4-8.7-13.6-11.9
			c-9.8-6.1-17.7-5.9-26.9,0.9c-5.3,3.9-10.2,8.2-15.5,12.1c-11.3,8.2-24,12.7-38,13c-5.5,0.1-11,0-16.5,0.2
			c-14.4,0.5-20.9,5.8-24.6,19.6c-3.7,14-2.8,28.1-1.2,42.2c2.2,19.5,4.5,39.1,13.7,57c7.2,13.9,14.3,14.8,25.4,3.6
			c8.1-8.2,12.4-18.7,17.8-28.6c2.1-3.9,3.6-8.8,7.5-10.9c22.4-11.6,44.3-26.1,71.2-11.7c8.7,4.7,18.2,8.2,25.4,8.5
			C490.4,405.3,494.4,400.7,492.2,388.2z M432.3,312.6c2.9-0.3,5,1.5,5.4,4.4c0.5,3.5-1.7,5.2-4.6,6c-3.2-0.1-5.1-1.7-5.6-4.5
			C427.1,315.1,429.1,312.9,432.3,312.6z M431.1,332.1c-0.6,3-2.2,5.3-5.6,5.1c-2.9-0.2-4.7-2.3-4.7-5.1c0-3.4,2.2-5.3,5.5-5.1
			C429.1,327,430.6,329.2,431.1,332.1z M418.9,306.1c3.4-0.1,4.9,2.2,5.2,4.6c-0.3,3.8-2.2,5.6-5,5.6c-3.2,0-5.2-2-5.1-5.4
			C414.1,307.9,416,306.1,418.9,306.1z M411.9,320.3c3.4-0.2,5.4,2,5.5,5.2c0.1,3-2.1,4.5-4.7,5.3c-3.5-0.3-5.6-2.2-5.7-5.4
			C407,322.5,408.9,320.5,411.9,320.3z M376.5,343.6c3.3,0.4,5,2.6,4.7,5.9c-0.3,3.3-2.5,4.8-5.7,5.2c-3.1-0.8-5.3-2.5-5.2-5.8
			C370.5,345.1,372.8,343.2,376.5,343.6z M345.9,356.9c1.9,4,0.9,5.8-3.3,7.5c-4.9,2.1-6-0.5-7-4.1c-0.4-1.4-1.3-2.3-3.2-1.6
			c-5.6,3.5-6.8-0.6-8.1-5c-0.5-1.7-0.8-3.3,1.2-3.8c4.4-1.1,6-3,3.9-7.7c-1.5-3.4,2.2-3.5,4.1-4.3c2.4-1.1,5.3-2.1,6.2,1.8
			c0.9,3.7,2.6,4.7,6.1,2.9c3.7-1.9,4.4,1.2,5.3,3.7c0.9,2.7,2.6,5.5-1.9,6.7C347.3,353.5,344.5,353.8,345.9,356.9z M368.7,400.9
			c-10.2,0-18.5-8.3-18.4-18.4c0.1-10,8.8-18.4,18.8-18.2c9.6,0.2,17.9,8.6,18,18.2C387.3,392.6,379,400.9,368.7,400.9z M394.4,348
			c-3.1,0.2-5.2-1.9-5.6-5.5c0-3.2,1.7-5.2,5-5.5c3.4-0.3,5.6,1.6,6,4.8C400.3,345.5,397.8,347.8,394.4,348z M421.3,382.7
			c-10,0.2-18.4-8.2-18.4-18.4c0-10.2,8.3-18.5,18.4-18.3c9.7,0.1,17.9,8.3,18.1,18C439.7,373.8,431.3,382.5,421.3,382.7z"/>
	</g>
</g>
</svg>
