<?xml version="1.0" encoding="UTF-8" standalone="no"?> <svg id="Layer_1" data-name="Layer 1" xmlns="http://www.w3.org/2000/svg" viewBox="0 0 48 48"><path d="M44.976,25.105a31.171,31.171,0,0,0-1.618-7.694A5,5,0,0,0,37.03,14.26,4.809,4.809,0,0,0,35.643,15H33V7a5.006,5.006,0,0,0-5-5H12A5.006,5.006,0,0,0,7,7V41a5.006,5.006,0,0,0,5,5H28a5.006,5.006,0,0,0,5-5V28h4.433c1.408,2,2.817,3.007,4.206,3.007a2.967,2.967,0,0,0,.95-.158C44.351,30.258,45.154,28.325,44.976,25.105ZM28,44H12a3,3,0,0,1-3-3V38H31v3A3,3,0,0,1,28,44Zm3-8H9V7a3,3,0,0,1,3-3H28a3,3,0,0,1,3,3v8H28.357a4.809,4.809,0,0,0-1.387-.739,5,5,0,0,0-6.328,3.151,31.171,31.171,0,0,0-1.618,7.694c-.178,3.22.625,5.153,2.387,5.743,1.694.566,3.426-.391,5.156-2.849H31Zm10.953-7.048c-.792.267-1.938-.649-3.154-2.5A1,1,0,0,0,37.963,26H26.037a1,1,0,0,0-.836.451c-1.217,1.853-2.368,2.769-3.154,2.5-.769-.258-1.143-1.619-1.026-3.736a29.069,29.069,0,0,1,1.518-7.169,3,3,0,0,1,3.795-1.89,2.862,2.862,0,0,1,1,.589A1,1,0,0,0,28,17h8a1,1,0,0,0,.665-.253,2.862,2.862,0,0,1,1-.589,3,3,0,0,1,3.8,1.89,29.069,29.069,0,0,1,1.518,7.169C43.1,27.333,42.722,28.694,41.953,28.952Z"/><circle cx="37" cy="19" r="1"/><circle cx="37" cy="23" r="1"/><circle cx="39" cy="21" r="1"/><circle cx="35" cy="21" r="1"/><path d="M29,20H28V19a1,1,0,0,0-2,0v1H25a1,1,0,0,0,0,2h1v1a1,1,0,0,0,2,0V22h1a1,1,0,0,0,0-2Z"/><path d="M24,7a1,1,0,0,0-1-1H17a1,1,0,0,0,0,2h6A1,1,0,0,0,24,7Z"/><circle cx="20" cy="41" r="1"/><circle cx="14" cy="41" r="1"/><circle cx="26" cy="41" r="1"/></svg>