<?xml version="1.0" encoding="UTF-8" standalone="no"?> <svg id="Layer_1" data-name="Layer 1" xmlns="http://www.w3.org/2000/svg" viewBox="0 0 48 48"><path d="M28,8H3a2,2,0,0,0-2,2V25a2,2,0,0,0,2,2h9v2H5a2,2,0,0,0-2,2,1,1,0,0,0,1,1H27a1,1,0,0,0,1-1,2,2,0,0,0-2-2H19V27h9a2,2,0,0,0,2-2V10A2,2,0,0,0,28,8Zm0,16H3V10H28Z"/><path d="M45,8H34a2,2,0,0,0-2,2V34.613A6.369,6.369,0,0,1,34.827,34a5.6,5.6,0,0,1,5.7,4.131A2.986,2.986,0,0,1,40.463,40H45a2,2,0,0,0,2-2V10A2,2,0,0,0,45,8ZM39.5,32A1.5,1.5,0,1,1,41,30.5,1.5,1.5,0,0,1,39.5,32Zm4-12.5h-8a.5.5,0,0,1,0-1h8a.5.5,0,0,1,0,1Zm0-2h-8a.5.5,0,0,1,0-1h8a.5.5,0,0,1,0,1Zm0-3h-8a.5.5,0,0,1,0-1h8a.5.5,0,0,1,0,1Zm0-2h-8a.5.5,0,0,1,0-1h8a.5.5,0,0,1,0,1Z"/><path d="M32,40a1,1,0,0,1-.96-1.286A3.634,3.634,0,0,1,34.826,36a3.634,3.634,0,0,1,3.783,2.714A1,1,0,0,1,37.649,40Z"/><path d="M29.13,38.131c.045-.145.107-.274.159-.412L26.8,34.4A1,1,0,0,0,26,34H5a1,1,0,0,0-.8.4l-3,4A1,1,0,0,0,2,40H29a.918.918,0,0,0,.182-.026A2.991,2.991,0,0,1,29.13,38.131Z"/></svg>